<?xml version="1.0" standalone="no"?>
<!DOCTYPE svg PUBLIC "-//W3C//DTD SVG 20010904//EN"
 "http://www.w3.org/TR/2001/REC-SVG-20010904/DTD/svg10.dtd">
<svg version="1.0" xmlns="http://www.w3.org/2000/svg"
 width="700.000000pt" height="700.000000pt" viewBox="0 0 700.000000 700.000000"
 preserveAspectRatio="xMidYMid meet">
<metadata>
Created by potrace 1.14, written by Peter Selinger 2001-2017
</metadata>
<g transform="translate(0.000000,700.000000) scale(0.100000,-0.100000)"
fill="#000000" stroke="none">
<path d="M4737 6986 c-34 -12 -64 -31 -77 -47 -3 -4 -60 -64 -126 -135 -67
-71 -139 -147 -160 -170 -22 -23 -94 -99 -161 -170 -66 -71 -138 -147 -158
-169 -21 -22 -99 -105 -175 -185 -75 -80 -148 -157 -161 -171 -13 -15 -81 -87
-150 -160 -70 -74 -143 -152 -164 -174 -20 -22 -98 -105 -174 -184 -75 -79
-143 -151 -151 -161 -8 -9 -72 -77 -142 -151 -69 -74 -143 -152 -164 -174 -33
-36 -254 -271 -329 -350 -16 -18 -89 -95 -161 -171 -72 -76 -146 -155 -164
-174 -55 -59 -408 -434 -532 -565 -42 -44 -85 -90 -95 -101 -15 -18 -274 -292
-336 -356 -38 -40 -61 -101 -60 -160 0 -76 38 -140 107 -183 l49 -30 754 0
c576 0 753 -3 753 -12 0 -6 -31 -112 -69 -235 -38 -123 -85 -275 -104 -338
-39 -127 -117 -381 -147 -475 -10 -33 -61 -199 -113 -370 -53 -170 -114 -371
-137 -445 -109 -352 -163 -529 -177 -575 -8 -27 -21 -69 -29 -93 -39 -118 4
-225 111 -278 47 -22 64 -26 109 -21 54 5 102 25 128 50 19 20 260 276 298
317 18 19 94 100 170 180 75 80 148 157 161 171 27 30 265 283 319 339 19 20
92 97 161 171 139 147 158 167 328 348 138 148 138 148 311 331 74 78 146 154
159 169 20 22 124 133 321 341 90 96 281 299 310 330 18 19 90 96 160 170 70
74 142 151 160 170 18 19 90 95 160 170 70 74 143 151 160 170 18 19 90 96
160 170 187 197 197 209 216 249 10 21 18 60 18 93 0 74 -39 140 -108 183
l-49 30 -751 2 c-413 0 -755 1 -759 2 -5 1 -5 6 -2 11 4 6 15 39 25 73 10 34
41 134 68 222 28 88 77 248 110 355 33 107 77 249 97 315 21 66 42 136 47 155
5 19 16 53 23 75 8 22 30 92 49 155 32 106 198 647 282 920 20 63 49 157 65
208 31 100 36 150 17 203 -38 112 -170 175 -281 135z m-447 -1158 c-18 -57
-38 -123 -45 -148 -13 -45 -110 -361 -185 -600 -21 -69 -55 -179 -75 -245 -20
-66 -50 -163 -67 -215 -16 -52 -34 -111 -40 -130 -5 -19 -32 -107 -60 -195
-28 -88 -56 -180 -63 -205 -8 -25 -19 -63 -25 -85 -16 -51 -5 -139 20 -181 25
-39 80 -82 123 -95 19 -6 291 -10 671 -11 l638 0 -44 -47 c-69 -72 -202 -211
-248 -261 -23 -25 -97 -103 -165 -175 -67 -71 -137 -146 -155 -165 -18 -19
-91 -98 -164 -174 -72 -77 -142 -151 -156 -166 -58 -62 -185 -197 -461 -490
-75 -80 -156 -165 -179 -190 -23 -25 -95 -101 -160 -170 -65 -69 -135 -143
-155 -165 -21 -22 -95 -101 -165 -175 -70 -74 -142 -151 -160 -170 -141 -152
-284 -300 -287 -297 -3 4 36 131 332 1092 284 920 264 852 265 900 0 89 -66
179 -149 204 -35 10 -182 13 -679 13 l-635 -1 55 57 c30 31 81 86 114 121 32
35 79 84 104 110 111 116 314 333 332 353 11 13 54 59 96 103 43 44 142 150
222 235 80 85 179 190 221 235 42 44 118 125 170 180 52 55 128 135 169 179
41 44 84 89 95 101 36 39 308 328 386 410 173 183 229 242 259 275 18 19 85
91 149 159 64 67 118 127 120 133 1 5 5 7 8 4 3 -2 -10 -51 -27 -108z"/>
</g>
</svg>
